HIERARCHY
ROOT Hips
{
	OFFSET 0.000000 0.000000 0.000000
	CHANNELS 6 Xposition Yposition Zposition Yrotation Xrotation Zrotation
	JOINT Chest
	{
		OFFSET 0.000000 -0.009281 11.569106
		CHANNELS 3 Yrotation Xrotation Zrotation
		JOINT Chest2
		{
			OFFSET -0.000000 0.016865 9.269641
			CHANNELS 3 Yrotation Xrotation Zrotation
			JOINT Chest3
			{
				OFFSET -0.000000 0.000001 8.374491
				CHANNELS 3 Yrotation Xrotation Zrotation
				JOINT Chest4
				{
					OFFSET -0.000000 0.000001 8.374493
					CHANNELS 3 Yrotation Xrotation Zrotation
					JOINT Neck
					{
						OFFSET -0.000000 0.000002 12.152554
						CHANNELS 3 Yrotation Xrotation Zrotation
						JOINT Head
						{
							OFFSET -0.000000 0.040101 7.802319
							CHANNELS 3 Yrotation Xrotation Zrotation
							End Site
							{
								OFFSET -0.000000 0.020947 14.853096
							}
						}
					}
					JOINT RightCollar
					{
						OFFSET 2.894404 0.000001 6.791374
						CHANNELS 3 Yrotation Xrotation Zrotation
						JOINT RightShoulder
						{
							OFFSET 13.574684 0.000001 0.000000
							CHANNELS 3 Yrotation Xrotation Zrotation
							JOINT RightElbow
							{
								OFFSET 23.923903 0.000002 0.000000
								CHANNELS 3 Yrotation Xrotation Zrotation
								JOINT RightWrist
								{
									OFFSET 19.846718 0.012767 0.000000
									CHANNELS 3 Yrotation Xrotation Zrotation
									End Site
									{
										OFFSET 14.973145 0.000001 0.000000
									}
								}
							}
						}
					}
					JOINT LeftCollar
					{
						OFFSET -2.894404 0.000001 6.791374
						CHANNELS 3 Yrotation Xrotation Zrotation
						JOINT LeftShoulder
						{
							OFFSET -13.574684 -0.000001 0.000000
							CHANNELS 3 Yrotation Xrotation Zrotation
							JOINT LeftElbow
							{
								OFFSET -23.923903 -0.000002 0.000000
								CHANNELS 3 Yrotation Xrotation Zrotation
								JOINT LeftWrist
								{
									OFFSET -19.846718 0.012763 0.000000
									CHANNELS 3 Yrotation Xrotation Zrotation
									End Site
									{
										OFFSET -14.973145 -0.000001 0.000000
									}
								}
							}
						}
					}
				}
			}
		}
	}
	JOINT RightHip
	{
		OFFSET 9.469263 0.004643 0.045487
		CHANNELS 3 Yrotation Xrotation Zrotation
		JOINT RightKnee
		{
			OFFSET 0.000000 0.002661 -40.478676
			CHANNELS 3 Yrotation Xrotation Zrotation
			JOINT RightAnkle
			{
				OFFSET 0.000000 0.049106 -35.224068
				CHANNELS 3 Yrotation Xrotation Zrotation
				JOINT RightToe
				{
					OFFSET -0.000001 12.539529 -6.151390
					CHANNELS 3 Yrotation Xrotation Zrotation
					End Site
					{
						OFFSET -0.000001 5.044994 -1.291870
					}
				}
			}
		}
	}
	JOINT LeftHip
	{
		OFFSET -9.469263 0.004641 0.045487
		CHANNELS 3 Yrotation Xrotation Zrotation
		JOINT LeftKnee
		{
			OFFSET 0.000000 0.002661 -40.478676
			CHANNELS 3 Yrotation Xrotation Zrotation
			JOINT LeftAnkle
			{
				OFFSET 0.000000 0.049106 -35.224068
				CHANNELS 3 Yrotation Xrotation Zrotation
				JOINT LeftToe
				{
					OFFSET -0.000001 12.539529 -6.151390
					CHANNELS 3 Yrotation Xrotation Zrotation
					End Site
					{
						OFFSET -0.000001 5.044994 -1.291870
					}
				}
			}
		}
	}
}
MOTION
Frames: 6
Frame Time: 0.016667
-128.442215 46.997246 80.888641 -0.297310 -9.885475 -162.404522 0.457230 -3.311453 3.037184 0.633554 -1.386421 1.193825 0.633555 -1.386420 1.193826 0.477854 -1.038584 0.896766 -2.625179 -21.884797 1.778464 -4.248148 -4.442855 2.478274 12.320708 -4.444413 -2.132146 72.439969 -4.556123 31.476005 4.194451 -25.055150 40.675860 -31.859902 16.758509 37.904644 -6.700123 -0.053107 3.584597 -73.920385 22.242835 19.335169 15.737681 18.603164 16.587164 12.165283 -1.473667 -9.209245 -4.414134 -14.620922 -10.205458 6.165461 -34.964937 -1.996595 12.374552 -5.735745 3.968779 -12.819485 43.207879 -3.658494 -8.848534 5.974822 7.891864 -4.150393 -3.544467 8.046506 9.680116 -13.291826 1.623661 -0.526121 3.943370 0.011610 
-126.954025 45.448383 80.658615 -2.368085 -9.547054 -162.368432 -0.647011 -3.372793 3.926651 0.535462 -1.245516 1.133913 0.535462 -1.245515 1.133915 0.403893 -0.933147 0.851496 -3.143619 -22.080052 2.033398 -5.115098 -4.801359 2.798882 12.025202 -5.492546 -1.863022 74.134224 -3.589346 30.095839 7.541944 -24.776651 40.601038 -32.984384 19.713664 39.929713 -6.238327 -0.461939 4.890014 -73.219635 22.564686 19.083769 15.617161 17.944912 16.347214 12.111449 -1.904111 -8.406101 -8.405703 -12.493105 -9.393760 6.674945 -40.648495 -3.393930 14.786671 -10.707098 4.545971 -15.485362 50.744563 -4.939395 -11.666789 4.641063 9.972533 -3.494297 -3.821223 6.574391 10.466724 -12.689864 2.346684 -1.192551 4.052974 -0.547866 
-126.001892 44.060329 80.322906 -3.375158 -8.585543 -161.605459 -0.985368 -2.741890 3.775966 0.461870 -1.045092 1.058220 0.461870 -1.045091 1.058224 0.348204 -0.783021 0.794432 -3.706340 -22.240009 2.365135 -6.040514 -5.091933 3.246803 12.030231 -5.989035 -1.505866 75.051232 -2.649539 28.466987 11.254403 -24.436489 39.779940 -33.410758 22.197526 41.398289 -5.756039 -1.110649 6.006810 -72.897093 22.996173 18.544356 15.276780 17.616902 15.817612 11.773258 -1.944176 -7.975484 -10.916914 -9.347041 -10.366985 5.681038 -46.386711 -3.178481 17.495197 -15.551023 6.747271 -21.687985 56.804720 -9.766024 -13.587734 4.039036 9.213604 -3.574525 -4.235643 6.922294 11.108737 -10.582621 2.485174 -1.206798 3.052175 -0.471688 
-124.984413 42.603493 80.041382 -3.579477 -7.943034 -160.380273 -0.497197 -2.321123 2.973187 0.359812 -0.847924 0.962819 0.359812 -0.847924 0.962819 0.271191 -0.635378 0.722599 -4.254566 -22.344949 2.753901 -6.923794 -5.277385 3.801218 11.956807 -4.962500 -1.684283 75.920414 -2.325576 25.816800 15.029602 -24.199910 38.316497 -33.072452 23.921496 42.533319 -5.817706 -1.518892 6.213293 -72.049569 23.935877 18.170520 14.782047 17.699855 15.232488 11.061237 -1.517428 -7.871404 -12.036306 -6.273604 -11.915134 3.533510 -51.569216 -1.163014 20.201811 -20.421625 8.781856 -30.110063 59.599725 -16.972115 -14.235027 3.120785 7.318601 -4.195957 -4.296846 7.158890 11.886337 -7.925368 3.600912 -1.351019 1.174327 -0.890030 
-124.036156 41.145424 79.875778 -3.959479 -7.353778 -159.092168 -0.195453 -2.100757 2.132718 0.219540 -0.707602 0.867672 0.219540 -0.707602 0.867667 0.165659 -0.530390 0.650999 -4.739368 -22.349612 3.143912 -7.691555 -5.274936 4.372041 11.611150 -3.850706 -2.218606 77.137035 -1.949527 23.182714 18.252272 -24.214498 36.549500 -32.133626 25.037675 43.556297 -6.350246 -1.196634 5.935554 -70.516287 24.863289 18.084377 14.234427 17.964144 14.729892 10.136664 -0.774629 -7.975706 -12.674881 -3.191297 -12.699786 0.807585 -56.140279 2.534165 22.674384 -22.769298 8.554939 -33.834213 57.844271 -20.264627 -14.925418 1.816366 5.652640 -5.000270 -3.935190 7.280569 12.412142 -6.308147 3.811839 -1.104916 0.321511 -0.567440 
-123.032181 39.771278 79.784889 -4.470030 -6.684614 -157.962646 -0.191756 -1.941216 1.541774 0.065064 -0.633107 0.795276 0.065063 -0.633107 0.795274 0.049621 -0.474747 0.596515 -5.112657 -22.246853 3.477826 -8.272217 -5.073536 4.867560 11.372210 -3.842154 -2.399539 78.442482 -0.669948 21.414381 20.490789 -24.416323 34.643119 -30.941416 26.140853 44.669932 -6.861497 -0.362857 5.806420 -69.001617 25.290413 17.766915 13.700749 18.131318 14.252341 9.341327 0.140120 -8.186323 -12.889891 0.047644 -12.187797 -2.537192 -59.916701 7.232404 24.713428 -22.002934 7.078637 -31.351565 51.423729 -18.384246 -15.760137 0.915531 3.841459 -5.493096 -3.979185 8.069729 12.765981 -4.878524 3.937610 -0.959542 -0.135194 -0.469623 
